<svg width="16" height="17" viewBox="0 0 16 17" fill="none" xmlns="http://www.w3.org/2000/svg">
<g clip-path="url(#clip0_2006_833)">
<path d="M12.25 0.500183H3.75C1.67893 0.500183 0 2.17912 0 4.25018V12.7502C0 14.8213 1.67893 16.5002 3.75 16.5002H12.25C14.3211 16.5002 16 14.8213 16 12.7502V4.25018C16 2.17912 14.3211 0.500183 12.25 0.500183Z" fill="white"/>
<path d="M12.25 0.500183H3.75C1.67893 0.500183 0 2.17912 0 4.25018V12.7502C0 14.8213 1.67893 16.5002 3.75 16.5002H12.25C14.3211 16.5002 16 14.8213 16 12.7502V4.25018C16 2.17912 14.3211 0.500183 12.25 0.500183Z" fill="#0057FF"/>
<path d="M6.8582 8.12629C7.187 7.99069 7.439 7.77829 7.5938 7.52629C7.7486 7.27429 7.8452 6.94549 7.8452 6.59689C7.8452 6.26809 7.787 5.97769 7.6904 5.72629C7.574 5.47429 7.4192 5.28109 7.2062 5.14549C6.98323 4.99629 6.73373 4.8912 6.4712 4.83589C6.15791 4.78054 5.84012 4.75463 5.522 4.75849H2V12.1133H5.5808C5.9096 12.1133 6.239 12.0941 6.5288 11.9777C6.83495 11.9044 7.12418 11.773 7.3808 11.5907C7.6328 11.4359 7.826 11.2037 7.961 10.9133C8.0966 10.6421 8.174 10.3133 8.174 9.92629C8.174 9.46189 8.0582 9.05509 7.8452 8.74549C7.613 8.47429 7.2836 8.26189 6.8582 8.12629ZM3.6452 6.03589H5.174C5.3096 6.03589 5.4452 6.05509 5.5808 6.05509C5.7164 6.05509 5.8514 6.13309 5.9288 6.19069C6.04453 6.24535 6.13477 6.34247 6.1808 6.46189C6.239 6.57769 6.2582 6.71329 6.2582 6.90709C6.2582 7.19689 6.1802 7.44889 5.987 7.58449C5.76991 7.71159 5.52276 7.7783 5.2712 7.77769H3.6452V6.03589ZM6.4712 10.3907C6.413 10.5263 6.3356 10.6037 6.2 10.6811C6.0836 10.7585 5.948 10.8167 5.813 10.8167C5.6774 10.8359 5.5226 10.8359 5.3678 10.8359H3.626V8.84209H5.4062C5.7548 8.84209 6.026 8.92009 6.2582 9.09409C6.4712 9.24889 6.587 9.53929 6.587 9.90709C6.5486 10.1003 6.5486 10.2551 6.4712 10.3907ZM13.8842 8.64889C13.8062 8.26189 13.6322 7.93249 13.4192 7.64209C13.2006 7.34986 12.9238 7.10613 12.6062 6.92629C12.2374 6.75058 11.8345 6.658 11.426 6.65509C11.0192 6.65509 10.6322 6.73309 10.3418 6.86809C10.0111 7.00177 9.71384 7.20662 9.4712 7.46809C9.2192 7.72009 9.026 8.00989 8.8904 8.35849C8.74821 8.7154 8.6759 9.09631 8.6774 9.48049C8.6774 9.88729 8.7356 10.2743 8.8712 10.6229C9.0062 10.9709 9.2 11.2421 9.413 11.5133C9.665 11.7653 9.935 11.9585 10.2836 12.0941C10.6469 12.2389 11.035 12.3112 11.426 12.3071C12.026 12.3071 12.548 12.1715 12.974 11.9003C13.4192 11.6297 13.7096 11.1647 13.9226 10.5071H12.6446C12.587 10.6619 12.4514 10.8359 12.2582 10.9715C12.0644 11.1071 11.7938 11.1845 11.5034 11.1845C11.0966 11.1845 10.7678 11.0681 10.5554 10.8551C10.3418 10.6421 10.2062 10.2359 10.2062 9.80989H14C14 9.40369 13.9814 8.99689 13.8842 8.64889ZM10.1282 8.90089C10.1282 8.76469 10.1864 8.62909 10.2254 8.51329C10.283 8.37769 10.3412 8.24209 10.4378 8.14549C10.5542 8.02909 10.709 7.91329 10.8638 7.83589C11.0186 7.75789 11.2118 7.75789 11.3864 7.75789C11.7344 7.75789 12.0446 7.87429 12.1994 8.04889C12.3542 8.24209 12.4898 8.51329 12.5282 8.90089H10.1282ZM12.8192 5.26189H9.8192V5.99689H12.8192V5.26189Z" fill="white"/>
</g>
<defs>
<clipPath id="clip0_2006_833">
<rect width="16" height="16" fill="white" transform="translate(0 0.500183)"/>
</clipPath>
</defs>
</svg>
