<svg width="16" height="17" viewBox="0 0 16 17" fill="none" xmlns="http://www.w3.org/2000/svg">
<g clip-path="url(#clip0_2006_813)">
<path d="M12.25 0.500061H3.75C1.67893 0.500061 0 2.17899 0 4.25006V12.7501C0 14.8211 1.67893 16.5001 3.75 16.5001H12.25C14.3211 16.5001 16 14.8211 16 12.7501V4.25006C16 2.17899 14.3211 0.500061 12.25 0.500061Z" fill="white"/>
<path d="M12.25 0.500061H3.75C1.67893 0.500061 0 2.17899 0 4.25006V12.7501C0 14.8211 1.67893 16.5001 3.75 16.5001H12.25C14.3211 16.5001 16 14.8211 16 12.7501V4.25006C16 2.17899 14.3211 0.500061 12.25 0.500061Z" fill="#EA4C89"/>
<path d="M9.063 9.96346C9.52268 11.3256 9.83172 12.734 9.9846 14.1635C9.3463 14.3868 8.67484 14.5006 7.9986 14.5001C6.80892 14.502 5.64578 14.1485 4.6584 13.4849C5.11854 12.6323 5.7456 11.8811 6.50222 11.276C7.25884 10.6709 8.12953 10.2243 9.0624 9.96286L9.063 9.96346ZM13.7424 10.2413C13.3142 11.6491 12.3845 12.851 11.1294 13.6193C10.9609 12.3008 10.6676 11.0014 10.2534 9.73846C11.4401 9.61588 12.6386 9.78861 13.7424 10.2413ZM8.0856 7.59106C8.2852 7.99826 8.4712 8.41286 8.6436 8.83486C6.56545 9.44367 4.80186 10.8299 3.7194 12.7055C3.11107 12.082 2.64458 11.3346 2.35182 10.5142C2.05907 9.69387 1.94698 8.81995 2.0232 7.95226C4.029 8.37706 6.1452 8.25346 8.0856 7.59106ZM12.6306 4.68646C13.6302 5.90727 14.1125 7.47067 13.9746 9.04246C12.6547 8.5458 11.2315 8.38698 9.8346 8.58046C9.64163 8.09313 9.43048 7.61319 9.2016 7.14166C10.4873 6.54364 11.6502 5.711 12.6306 4.68646ZM5.1582 3.21406C6.05516 4.23082 6.8453 5.33703 7.5162 6.51526C5.81328 7.0576 3.99838 7.14653 2.2506 6.77326C2.71078 5.24892 3.75631 3.96909 5.1582 3.21406ZM7.9986 2.50006C9.4314 2.50006 10.7472 3.00226 11.7786 3.84046C10.8859 4.77762 9.82298 5.53632 8.6466 6.07606C7.98445 4.89019 7.20882 3.77135 6.3306 2.73526C6.87277 2.57882 7.43431 2.49964 7.9986 2.50006Z" fill="white"/>
</g>
<defs>
<clipPath id="clip0_2006_813">
<rect width="16" height="16" fill="white" transform="translate(0 0.500061)"/>
</clipPath>
</defs>
</svg>
