<svg width="16" height="17" viewBox="0 0 16 17" fill="none" xmlns="http://www.w3.org/2000/svg">
<g clip-path="url(#clip0_2006_854)">
<path d="M12.25 0.500305H3.75C1.67893 0.500305 0 2.17924 0 4.25031V12.7503C0 14.8214 1.67893 16.5003 3.75 16.5003H12.25C14.3211 16.5003 16 14.8214 16 12.7503V4.25031C16 2.17924 14.3211 0.500305 12.25 0.500305Z" fill="white"/>
<path d="M12.25 0.500305H3.75C1.67893 0.500305 0 2.17924 0 4.25031V12.7503C0 14.8214 1.67893 16.5003 3.75 16.5003H12.25C14.3211 16.5003 16 14.8214 16 12.7503V4.25031C16 2.17924 14.3211 0.500305 12.25 0.500305Z" fill="#1D1D1D"/>
<path d="M6.13314 14C7.14514 14 7.96647 13.1787 7.96647 12.1667V10.3334H6.13314C5.12114 10.3334 4.2998 11.1547 4.2998 12.1667C4.2998 13.1787 5.12114 14 6.13314 14Z" fill="#04CB7E"/>
<path d="M4.2998 8.50008C4.2998 7.48808 5.12114 6.66675 6.13314 6.66675H7.96647V10.3334H6.13314C5.12114 10.3334 4.2998 9.51208 4.2998 8.50008Z" fill="#9C57F6"/>
<path d="M4.2998 4.83339C4.2998 3.82139 5.12114 3.00006 6.13314 3.00006H7.96647V6.66673H6.13314C5.12114 6.66673 4.2998 5.84539 4.2998 4.83339Z" fill="#ED4C1B"/>
<path d="M7.96631 3.00006H9.79964C10.8116 3.00006 11.633 3.82139 11.633 4.83339C11.633 5.84539 10.8116 6.66673 9.79964 6.66673H7.96631V3.00006Z" fill="#F86E60"/>
<path d="M11.633 8.50008C11.633 9.51208 10.8116 10.3334 9.79964 10.3334C8.78764 10.3334 7.96631 9.51208 7.96631 8.50008C7.96631 7.48808 8.78764 6.66675 9.79964 6.66675C10.8116 6.66675 11.633 7.48808 11.633 8.50008Z" fill="#1DB6F7"/>
</g>
<defs>
<clipPath id="clip0_2006_854">
<rect width="16" height="16" fill="white" transform="translate(0 0.500305)"/>
</clipPath>
</defs>
</svg>
