<svg width="16" height="17" viewBox="0 0 16 17" fill="none" xmlns="http://www.w3.org/2000/svg">
<path d="M12.25 0.5H3.75C1.67893 0.5 0 2.17893 0 4.25V12.75C0 14.8211 1.67893 16.5 3.75 16.5H12.25C14.3211 16.5 16 14.8211 16 12.75V4.25C16 2.17893 14.3211 0.5 12.25 0.5Z" fill="#F4F2ED"/>
<path d="M2.81815 13.0023H4.72721V8.36597L2 6.32059V12.1842C2 12.6368 2.36684 13.0023 2.81815 13.0023Z" fill="#4285F4"/>
<path d="M11.2729 13.0023H13.1821C13.6348 13.0023 14.0002 12.6355 14.0002 12.1842V6.32053L11.2729 8.36597" fill="#34A853"/>
<path d="M11.2729 4.82054V8.36596L14.0002 6.32058V5.22955C14.0002 4.21778 12.8452 3.64095 12.0366 4.24778" fill="#FBBC04"/>
<path d="M4.72705 8.36598V4.82062L7.99972 7.27501L11.2724 4.8205V8.36592L7.99972 10.8205" fill="#EA4335"/>
<path d="M2 5.22962V6.32053L4.72721 8.36597V4.8206L3.9636 4.24784C3.15361 3.64101 2 4.21784 2 5.22962Z" fill="#C5221F"/>
</svg>
