<svg width="16" height="17" viewBox="0 0 16 17" fill="none" xmlns="http://www.w3.org/2000/svg">
<g clip-path="url(#clip0_2006_823)">
<path d="M12.25 0.500122H3.75C1.67893 0.500122 0 2.17905 0 4.25012V12.7501C0 14.8212 1.67893 16.5001 3.75 16.5001H12.25C14.3211 16.5001 16 14.8212 16 12.7501V4.25012C16 2.17905 14.3211 0.500122 12.25 0.500122Z" fill="white"/>
<path d="M12.25 0.500122H3.75C1.67893 0.500122 0 2.17905 0 4.25012V12.7501C0 14.8212 1.67893 16.5001 3.75 16.5001H12.25C14.3211 16.5001 16 14.8212 16 12.7501V4.25012C16 2.17905 14.3211 0.500122 12.25 0.500122Z" fill="#0A66C2"/>
<path d="M11.5447 14.1054H13.3741C13.4404 14.1054 13.5039 14.0791 13.5508 14.0322C13.5977 13.9854 13.624 13.9218 13.6241 13.8555L13.625 9.99037C13.625 7.97018 13.1897 6.41737 10.8289 6.41737C9.93144 6.384 9.08512 6.84662 8.62844 7.61912C8.6262 7.62287 8.62281 7.62579 8.61876 7.62743C8.61471 7.62907 8.61024 7.62934 8.60603 7.6282C8.60181 7.62706 8.59808 7.62457 8.59542 7.62112C8.59275 7.61766 8.59129 7.61343 8.59125 7.60906V6.85387C8.59125 6.78757 8.56491 6.72398 8.51803 6.6771C8.47114 6.63021 8.40755 6.60387 8.34125 6.60387H6.60519C6.53888 6.60387 6.4753 6.63021 6.42841 6.6771C6.38153 6.72398 6.35519 6.78757 6.35519 6.85387V13.8551C6.35519 13.9214 6.38153 13.985 6.42841 14.0319C6.4753 14.0788 6.53888 14.1051 6.60519 14.1051H8.43444C8.50074 14.1051 8.56433 14.0788 8.61121 14.0319C8.6581 13.985 8.68444 13.9214 8.68444 13.8551V10.3943C8.68444 9.41575 8.87006 8.46806 10.0833 8.46806C11.2792 8.46806 11.2947 9.58781 11.2947 10.4577V13.8554C11.2947 13.9217 11.321 13.9853 11.3679 14.0322C11.4148 14.0791 11.4784 14.1054 11.5447 14.1054ZM2.375 4.22687C2.375 4.96837 2.98544 5.5785 3.727 5.5785C4.46837 5.57843 5.07844 4.96793 5.07844 4.22656C5.07831 3.48518 4.46819 2.87512 3.72675 2.87512C2.98512 2.87512 2.375 3.48537 2.375 4.22687ZM2.80994 14.1054H4.64162C4.70793 14.1054 4.77152 14.0791 4.8184 14.0322C4.86529 13.9853 4.89162 13.9217 4.89162 13.8554V6.85387C4.89162 6.78757 4.86529 6.72398 4.8184 6.6771C4.77152 6.63021 4.70793 6.60387 4.64162 6.60387H2.80994C2.74363 6.60387 2.68004 6.63021 2.63316 6.6771C2.58628 6.72398 2.55994 6.78757 2.55994 6.85387V13.8554C2.55994 13.9217 2.58628 13.9853 2.63316 14.0322C2.68004 14.0791 2.74363 14.1054 2.80994 14.1054Z" fill="white"/>
</g>
<defs>
<clipPath id="clip0_2006_823">
<rect width="16" height="16" fill="white" transform="translate(0 0.500122)"/>
</clipPath>
</defs>
</svg>
