<svg width="16" height="17" viewBox="0 0 16 17" fill="none" xmlns="http://www.w3.org/2000/svg">
<g clip-path="url(#clip0_2006_843)">
<path d="M12.25 0.500244H3.75C1.67893 0.500244 0 2.17918 0 4.25024V12.7502C0 14.8213 1.67893 16.5002 3.75 16.5002H12.25C14.3211 16.5002 16 14.8213 16 12.7502V4.25024C16 2.17918 14.3211 0.500244 12.25 0.500244Z" fill="white"/>
<path d="M12.25 0.500244H3.75C1.67893 0.500244 0 2.17918 0 4.25024V12.7502C0 14.8213 1.67893 16.5002 3.75 16.5002H12.25C14.3211 16.5002 16 14.8213 16 12.7502V4.25024C16 2.17918 14.3211 0.500244 12.25 0.500244Z" fill="black"/>
<path d="M5.6 4.5C6.55478 4.5 7.47045 4.87928 8.14558 5.55442C8.82072 6.22955 9.2 7.14522 9.2 8.1C9.2 9.05478 8.82072 9.97045 8.14558 10.6456C7.47045 11.3207 6.55478 11.7 5.6 11.7C4.64522 11.7 3.72955 11.3207 3.05442 10.6456C2.37928 9.97045 2 9.05478 2 8.1C2 7.14522 2.37928 6.22955 3.05442 5.55442C3.72955 4.87928 4.64522 4.5 5.6 4.5ZM11 5.1C11.9 5.1 12.5 6.4434 12.5 8.1C12.5 9.7566 11.9 11.1 11 11.1C10.1 11.1 9.5 9.7566 9.5 8.1C9.5 6.4434 10.1 5.1 11 5.1ZM13.4 5.4C13.628 5.4 13.8272 5.8962 13.928 6.7476L13.9562 7.0134L13.9676 7.1544L13.9856 7.4508L13.9916 7.6062L13.9988 7.9308L14 8.1L13.9988 8.2692L13.9916 8.5938L13.9856 8.7498L13.9676 9.0456L13.9556 9.1866L13.9286 9.4524C13.8272 10.3044 13.6286 10.8 13.4 10.8C13.172 10.8 12.9728 10.3038 12.872 9.4524L12.8438 9.1866L12.8324 9.0456L12.8144 8.7492L12.8084 8.5938L12.8012 8.2692V7.9308L12.8084 7.6062L12.8144 7.4502L12.8324 7.1544L12.8444 7.0134L12.8714 6.7476C12.9728 5.8956 13.1714 5.4 13.4 5.4Z" fill="white"/>
</g>
<defs>
<clipPath id="clip0_2006_843">
<rect width="16" height="16" fill="white" transform="translate(0 0.500244)"/>
</clipPath>
</defs>
</svg>
