<svg width="510" height="217" viewBox="0 0 510 217" fill="none" xmlns="http://www.w3.org/2000/svg">
<g clip-path="url(#clip0_4276_5646)">
<path d="M11.9232 115.744L23.4059 99.7903L174.282 38.8564L185.924 47.2357L168.079 72.0284L160.102 66.287L46.1801 112.255L45.249 113.548L140.324 181.979L127.91 199.226L11.9232 115.744ZM63.638 203.039L90.793 165.311L96.224 157.765L179.241 42.4254L197.781 55.7701L82.1786 216.384L63.638 203.039Z" fill="black"/>
<path d="M146.202 167.165C142.444 153.139 143.084 140.135 148.123 128.151C153.162 116.168 162.252 105.62 175.393 96.5071C188.62 87.3714 205.625 80.0193 226.407 74.4506C247.104 68.9049 265.464 66.7812 281.487 68.0795C297.618 69.4404 310.861 74.0501 321.217 81.9085C331.658 89.744 338.746 100.632 342.481 114.572C346.217 128.513 345.522 141.486 340.398 153.493C335.359 165.476 326.183 176.047 312.871 185.206C299.667 194.427 282.716 201.81 262.019 207.356C241.237 212.925 222.834 215.06 206.812 213.761C190.875 212.44 177.728 207.85 167.373 199.992C157.04 192.219 149.983 181.277 146.202 167.165ZM166.471 161.734C169.015 171.227 174.205 178.453 182.042 183.412C189.965 188.347 200.2 190.967 212.748 191.271C225.319 191.661 239.772 189.668 256.107 185.291C272.528 180.891 286.084 175.379 296.776 168.756C307.49 162.218 315.044 154.832 319.438 146.597C323.831 138.361 324.756 129.497 322.212 120.004C318.408 105.807 308.633 96.6927 292.886 92.6621C277.14 88.6314 256.951 89.9161 232.32 96.516C215.985 100.893 202.46 106.35 191.745 112.888C181.053 119.511 173.511 126.94 169.117 135.176C164.833 143.474 163.951 152.326 166.471 161.734Z" fill="black"/>
<path d="M380.103 213.242L366.761 198.808L337.149 38.8089L347.682 29.0726L368.417 51.5044L361.2 58.1755L383.518 178.978L384.6 180.148L470.621 100.635L485.045 116.24L380.103 213.242ZM475.96 179.981L444.407 145.845L438.097 139.018L341.635 34.662L358.41 19.156L492.735 164.475L475.96 179.981Z" fill="black"/>
</g>
<defs>
<clipPath id="clip0_4276_5646">
<rect width="510" height="217" fill="white"/>
</clipPath>
</defs>
</svg>
